<svg xmlns="http://www.w3.org/2000/svg" xmlns:svg="http://www.w3.org/2000/svg" id="svg3713" width="1333.333" height="266.667" version="1.1" viewBox="0 0 1333.333 266.667" xml:space="preserve"><metadata id="metadata3719"/><defs id="defs3717"><clipPath id="clipPath3729" clipPathUnits="userSpaceOnUse"><path id="path3727" d="M 0,200 H 1000 V 0 H 0 Z"/></clipPath></defs><g id="g3721" fill="#00a0e3" fill-opacity="1" transform="matrix(1.3333333,0,0,-1.3333333,0,266.66667)"><g id="g3723" fill="#00a0e3" fill-opacity="1"><g id="g3725" fill="#00a0e3" fill-opacity="1" clip-path="url(#clipPath3729)"><g id="g3731" fill="#00a0e3" fill-opacity="1" transform="translate(46.9448,138.832)"><path id="path3733" fill="#00a0e3" fill-opacity="1" fill-rule="nonzero" stroke="none" d="m 0,0 c 0,-15.33 17.382,-19.257 37.947,-21.872 24.117,-3.178 44.677,-10.657 44.677,-35.707 0,-20.002 -15.513,-38.696 -47.667,-38.696 -19.817,0 -36.265,4.489 -50.475,14.396 -1.869,1.12 -1.869,2.053 -0.75,4.11 l 3.553,5.98 c 1.308,2.058 2.058,2.433 4.3,1.125 11.967,-8.225 27.479,-12.527 41.502,-12.527 17.2,0 35.144,5.61 35.144,25.049 0,15.518 -14.02,20.565 -38.509,23.93 -20.377,2.808 -44.119,8.975 -44.119,33.837 0,14.393 10.844,39.072 47.109,39.072 19.255,0 31.779,-5.61 45.989,-14.21 2.058,-1.12 1.68,-2.245 0.933,-4.11 L 76.081,14.58 C 74.961,12.522 73.836,11.777 71.971,13.272 60.006,21.31 47.667,25.612 34.582,25.612 6.167,25.612 0,9.72 0,0"/></g><g id="g3735" fill="#00a0e3" fill-opacity="1" transform="translate(215.9419,55.2656)"><path id="path3737" fill="#00a0e3" fill-opacity="1" fill-rule="nonzero" stroke="none" d="m 0,0 c 29.537,0 51.967,26.737 51.967,54.777 0,28.227 -22.43,54.584 -51.967,54.772 -29.165,0 -51.969,-26.545 -51.969,-54.772 C -51.969,26.737 -29.165,0 0,0 m 0,122.633 c 36.827,0 66.922,-30.654 66.922,-67.856 0,-25.799 -13.458,-43.182 -29.35,-55.335 l 16.45,-22.616 c 1.312,-1.871 0.937,-2.996 -0.745,-4.115 l -7.293,-5.235 c -1.682,-1.121 -2.799,-0.746 -3.924,0.937 L 25.607,-7.1 C 17.575,-10.652 11.027,-13.084 0,-13.084 c -36.829,0 -66.924,30.664 -66.924,67.861 0,37.202 30.095,67.856 66.924,67.856"/></g><g id="g3739" fill="#00a0e3" fill-opacity="1" transform="translate(389.8018,57.5156)"><path id="path3741" fill="#00a0e3" fill-opacity="1" fill-rule="nonzero" stroke="none" d="m 0,0 c 2.245,0 2.805,-0.75 2.805,-2.994 v -6.918 c 0,-2.245 -0.56,-2.99 -2.805,-2.99 h -76.084 c -2.245,0 -2.992,0.745 -2.992,2.99 v 124.878 c 0,2.24 0.747,2.99 2.992,2.99 h 8.788 c 2.239,0 2.989,-0.75 2.989,-2.99 V 0 Z"/></g><g id="g3743" fill="#00a0e3" fill-opacity="1" transform="translate(555.251,175.4717)"><path id="path3745" fill="#00a0e3" fill-opacity="1" fill-rule="nonzero" stroke="none" d="m 0,0 c 2.428,0 2.803,-0.75 2.803,-2.99 v -7.48 c 0,-2.245 -0.563,-2.99 -2.803,-2.99 h -44.868 v -114.408 c 0,-2.245 -0.563,-2.99 -2.803,-2.99 h -8.975 c -2.43,0 -2.992,0.745 -2.992,2.99 V -13.46 h -44.677 c -2.428,0 -2.99,0.745 -2.99,2.99 v 7.48 c 0,2.24 0.75,2.99 2.99,2.99 z"/></g><g id="g3747" fill="#00a0e3" fill-opacity="1" transform="translate(624.9873,108.5479)"><path id="path3749" fill="#00a0e3" fill-opacity="1" fill-rule="nonzero" stroke="none" d="M 0,0 C 22.242,0 31.962,10.652 31.962,27.664 31.962,46.358 19.252,54.209 0,54.209 H -31.779 V 0 Z m 17.007,-11.032 35.144,-49.35 c 1.495,-2.432 0,-3.553 -2.24,-3.553 h -8.787 c -2.245,0 -3.74,1.121 -5.052,2.991 L 1.678,-12.715 h -33.457 v -48.229 c 0,-2.428 -0.755,-2.991 -2.995,-2.991 h -8.788 c -2.24,0 -2.99,0.375 -2.99,2.991 V 63.934 c 0,2.24 0.75,2.99 2.99,2.99 H 0.933 c 21.309,0 45.421,-8.976 45.421,-39.26 0,-22.242 -11.959,-34.024 -29.347,-38.696"/></g><g id="g3751" fill="#00a0e3" fill-opacity="1" transform="translate(704.0635,172.4814)"><path id="path3753" fill="#00a0e3" fill-opacity="1" fill-rule="nonzero" stroke="none" d="m 0,0 c 0,2.24 0.75,2.99 2.995,2.99 h 8.97 c 2.245,0 2.807,-0.75 2.807,-2.99 v -124.878 c 0,-2.245 -0.562,-2.99 -2.807,-2.99 h -8.97 c -2.245,0 -2.995,0.745 -2.995,2.99 z"/></g><g id="g3755" fill="#00a0e3" fill-opacity="1" transform="translate(807.8193,57.3232)"><path id="path3757" fill="#00a0e3" fill-opacity="1" fill-rule="nonzero" stroke="none" d="m 0,0 c 22.617,0 31.962,9.162 31.962,24.862 0,12.715 -13.085,23.185 -30.284,23.185 H -37.015 V 0 Z m -0.192,60.382 c 16.08,0 27.482,8.042 27.482,20.189 0,17.2 -12.527,24.863 -31.78,24.863 H -37.015 V 60.382 Z M -48.797,-12.71 c -2.24,0 -2.99,0.563 -2.99,2.99 v 124.878 c 0,2.24 0.75,2.99 2.99,2.99 h 45.244 c 21.31,0 45.797,-8.788 45.797,-36.269 0,-16.45 -13.272,-24.112 -21.309,-27.108 V 54.589 C 28.222,52.345 47.104,44.119 47.104,23.367 47.104,-2.989 25.795,-12.71 1.12,-12.71 Z"/></g><g id="g3759" fill="#00a0e3" fill-opacity="1" transform="translate(967.2793,57.5156)"><path id="path3761" fill="#00a0e3" fill-opacity="1" fill-rule="nonzero" stroke="none" d="m 0,0 h -71.409 v 59.553 h 68.044 c 2.245,0 2.995,0.75 2.995,2.99 v 6.917 c 0,2.245 -0.75,2.99 -2.995,2.99 H -58.482 -71.409 -86.176 V -9.912 c 0,-2.245 0.744,-2.99 2.989,-2.99 H 0 c 2.245,0 2.808,0.745 2.808,2.99 v 6.918 C 2.808,-0.75 2.245,0 0,0"/></g><g id="g3763" fill="#00a0e3" fill-opacity="1" transform="translate(967.2793,175.4717)"><path id="path3765" fill="#00a0e3" fill-opacity="1" fill-rule="nonzero" stroke="none" d="m 0,0 h -83.187 c -2.245,0 -2.989,-0.75 -2.989,-2.99 v -9.907 H -71.409 -58.482 0 c 2.058,0 2.808,0.745 2.808,2.99 V -2.99 C 2.808,-0.75 2.058,0 0,0"/></g></g></g></g></svg>